<svg version="1.2" xmlns="http://www.w3.org/2000/svg" viewBox="0 0 24 24" width="24" height="24">
	<title>logoDownload-svg</title>
	<style>
		.s0 { fill: none;stroke: #000000;stroke-linecap: round;stroke-linejoin: round;stroke-width: 2 } 
		.s1 { fill: #000000 } 
	</style>
	<path id="Layer" class="s0" d="m12 10v10m0 0l-2.5-2.5m2.5 2.5l2.5-2.5"/>
	<path id="Layer" fill-rule="evenodd" class="s1" d="m6.3 7.1c0.8-2.4 3.1-4.1 5.7-4.1 2.6 0 4.9 1.7 5.7 4.1 1.9 0.3 3.3 1.9 3.3 3.9 0 2.2-1.8 4-4 4h-1c-0.6 0-1-0.4-1-1 0-0.6 0.4-1 1-1h1c1.1 0 2-0.9 2-2 0-1.1-0.9-2-2-2q0 0-0.1 0c-0.5 0-0.9-0.3-1-0.8-0.3-1.8-2-3.2-3.9-3.2-1.9 0-3.6 1.4-3.9 3.2-0.1 0.5-0.5 0.8-1 0.8q-0.1 0-0.1 0c-1.1 0-2 0.9-2 2 0 1.1 0.9 2 2 2h1c0.6 0 1 0.4 1 1 0 0.6-0.4 1-1 1h-1c-2.2 0-4-1.8-4-4 0-2 1.4-3.6 3.3-3.9z"/>
</svg>